Coordinates
version=1
nRows=54
nColumns=12
inDegrees=yes

Units are S.I. units (second, meters, Newtons, ...)
Angles are in degrees

endheader
time	SC_y	SC_z	SC_x	AC_y	AC_z	AC_x	GH_y	GH_z	GH_yy	EL_x	PS_y
       0.0              -55.95          7.269          74.76          60.74          -2.63          5.526         -25.96          19.78         -4.749          124.7          118.2
   0.02473              -55.94          7.271          74.75          60.73         -2.632          5.527         -25.98          19.78         -4.747          124.7          118.2
   0.04947              -55.94          7.272          74.74          60.73         -2.634          5.527          -26.0          19.79         -4.746          124.7          118.2
    0.0742              -55.94          7.273          74.73          60.73         -2.637          5.528         -26.02          19.79         -4.745          124.7          118.2
   0.09894              -55.93          7.275          74.72          60.73         -2.639          5.528         -26.04           19.8         -4.743          124.6          118.2
    0.1237              -55.93          7.276           74.7          60.72         -2.642          5.529         -26.06          19.81         -4.742          124.6          118.2
    0.1484              -55.93          7.278          74.69          60.72         -2.645          5.529         -26.09          19.82          -4.74          124.6          118.2
    0.1731              -55.92           7.28          74.68          60.72         -2.648           5.53         -26.12          19.82         -4.739          124.6          118.2
    0.1979              -55.92          7.282          74.66          60.71         -2.651           5.53         -26.14          19.83         -4.737          124.5          118.2
    0.2226              -55.91          7.284          74.64          60.71         -2.655          5.531         -26.17          19.84         -4.735          124.5          118.2
    0.2473              -55.91          7.286          74.62           60.7         -2.658          5.532         -26.21          19.85         -4.733          124.5          118.2
    0.2721               -55.9          7.289           74.6           60.7         -2.663          5.533         -26.24          19.86          -4.73          124.5          118.2
    0.2968               -55.9          7.291          74.58          60.69         -2.667          5.534         -26.28          19.87         -4.728          124.4          118.2
    0.3215              -55.89          7.294          74.56          60.69         -2.672          5.535         -26.32          19.89         -4.725          124.4          118.2
    0.3463              -55.88          7.297          74.53          60.68         -2.677          5.536         -26.37           19.9         -4.722          124.3          118.2
     0.371              -55.87            7.3          74.51          60.67         -2.682          5.537         -26.42          19.91         -4.719          124.3          118.2
    0.3957              -55.87          7.304          74.48          60.67         -2.689          5.538         -26.47          19.93         -4.716          124.3          118.2
    0.4205              -55.86          7.308          74.44          60.66         -2.695          5.539         -26.53          19.95         -4.712          124.2          118.2
    0.4452              -55.85          7.312          74.41          60.65         -2.702          5.541         -26.59          19.96         -4.708          124.2          118.2
      0.47              -55.84          7.316          74.37          60.64          -2.71          5.542         -26.66          19.98         -4.704          124.1          118.2
    0.4947              -55.82          7.321          74.33          60.63         -2.719          5.544         -26.73          20.01         -4.699          124.0          118.2
    0.5194              -55.81          7.327          74.28          60.62         -2.729          5.546         -26.82          20.03         -4.693          123.9          118.2
    0.5442               -55.8          7.333          74.23           60.6         -2.739          5.548         -26.91          20.06         -4.687          123.9          118.2
    0.5689              -55.78           7.34          74.17          60.59         -2.751           5.55         -27.01          20.09         -4.681          123.8          118.2
    0.5936              -55.76          7.348          74.11          60.57         -2.764          5.553         -27.12          20.12         -4.674          123.7          118.2
    0.6184              -55.74          7.356          74.03          60.56         -2.778          5.555         -27.25          20.16         -4.665          123.6          118.2
    0.6431              -55.72          7.366          73.95          60.54         -2.795          5.559         -27.39           20.2         -4.656          123.4          118.1
    0.6678               -55.7          7.376          73.86          60.51         -2.813          5.562         -27.55          20.25         -4.646          123.3          118.1
    0.6926              -55.67          7.388          73.76          60.49         -2.834          5.566         -27.73           20.3         -4.634          123.1          118.1
    0.7173              -55.64          7.402          73.65          60.46         -2.857          5.571         -27.93          20.36         -4.621          122.9          118.1
     0.742               -55.6          7.418          73.52          60.43         -2.884          5.576         -28.17          20.43         -4.606          122.7          118.1
    0.7668              -55.56          7.436          73.37          60.39         -2.915          5.582         -28.43          20.51         -4.589          122.5          118.1
    0.7915              -55.51          7.456          73.19          60.35          -2.95          5.589         -28.74           20.6         -4.569          122.2          118.1
    0.8162              -55.45          7.481          72.99           60.3         -2.991          5.597          -29.1          20.71         -4.546          121.9          118.1
     0.841              -55.39          7.509          72.75          60.24          -3.04          5.606         -29.52          20.83         -4.519          121.5          118.1
    0.8657              -55.31          7.542          72.47          60.17         -3.097          5.618         -30.01          20.98         -4.487          121.1          118.0
    0.8904              -55.22          7.581          72.14          60.09         -3.164          5.631          -30.6          21.15         -4.449          120.6          118.0
    0.9152              -55.11          7.629          71.74          59.99         -3.245          5.647          -31.3          21.36         -4.404          119.9          118.0
    0.9399              -54.97          7.686          71.26          59.87         -3.343          5.666         -32.16          21.62         -4.349          119.2          118.0
    0.9646              -54.81          7.756          70.67          59.72         -3.463          5.689          -33.2          21.93         -4.282          118.2          117.9
    0.9894              -54.61          7.842          69.95          59.54         -3.611          5.718         -34.48          22.31         -4.199          117.1          117.9
     1.014              -54.35           7.95          69.04          59.32         -3.795          5.754         -36.08          22.78         -4.096          115.7          117.8
     1.039              -54.04          8.085           67.9          59.04         -4.027          5.799          -38.1          23.38         -3.965          113.9          117.7
     1.064              -53.63          8.258          66.45          58.68         -4.323          5.857         -40.66          24.14           -3.8          111.6          117.6
     1.088              -53.11          8.478          64.59          58.22         -4.701          5.931         -43.95          25.12         -3.588          108.6          117.5
     1.113              -52.45          8.762          62.21          57.63         -5.185          6.026         -48.16          26.37         -3.316          104.9          117.3
     1.138               -51.6          9.123          59.17          56.87         -5.805          6.147         -53.54          27.96         -2.969          100.1          117.1
     1.163              -50.54          9.578          55.34          55.92         -6.584          6.299          -60.3          29.97         -2.533           94.0          116.8
     1.187              -49.24          10.13          50.68          54.77         -7.533          6.484         -68.55          32.42         -2.001          86.63          116.5
     1.212              -47.74          10.77          45.28          53.43         -8.633          6.699          -78.1          35.25         -1.384          78.08          116.1
     1.237              -46.11          11.47          39.43          51.98         -9.824          6.932         -88.45          38.33        -0.7167          68.83          115.7
     1.261              -44.48          12.17          33.58          50.53         -11.02          7.165          -98.8           41.4       -0.04911          59.58          115.3
     1.286              -42.97          12.81          28.17          49.19         -12.12           7.38         -108.4          44.23         0.5674          51.03          114.9
     1.311              -41.68          13.36          23.51          48.03         -13.06          7.565         -116.6          46.68          1.099          43.66          114.5
